<?xml version="1.0" standalone="no"?>
<!DOCTYPE svg PUBLIC "-//W3C//DTD SVG 20010904//EN"
 "http://www.w3.org/TR/2001/REC-SVG-20010904/DTD/svg10.dtd">
<svg version="1.0" xmlns="http://www.w3.org/2000/svg"
 width="500.000000pt" height="500.000000pt" viewBox="0 0 500.000000 500.000000"
 preserveAspectRatio="xMidYMid meet">

<g transform="translate(0.000000,500.000000) scale(0.100000,-0.100000)"
fill="#000000" stroke="none">
<path d="M2400 4003 c-56 -12 -152 -64 -201 -110 -60 -56 -95 -107 -120 -178
-14 -40 -22 -49 -36 -45 -10 3 -56 5 -103 5 -71 0 -94 -5 -143 -27 -80 -37
-158 -118 -187 -193 -32 -83 -32 -197 0 -280 33 -85 123 -173 207 -203 92 -34
93 -36 93 -244 l0 -178 40 0 40 0 0 163 c-1 243 -12 274 -124 319 -95 39 -140
77 -177 153 -29 60 -31 71 -27 142 5 90 27 139 85 195 144 139 384 90 463 -94
18 -43 25 -49 43 -44 12 3 28 6 35 6 19 0 15 22 -18 87 -17 34 -53 81 -80 107
-58 55 -61 70 -23 146 110 221 393 270 577 100 48 -44 92 -126 102 -189 7 -41
5 -44 -42 -87 l-49 -44 24 -20 c30 -26 43 -25 70 4 31 33 112 67 175 73 38 4
66 -1 110 -17 245 -93 263 -421 29 -530 -110 -52 -117 -57 -140 -101 -22 -40
-23 -54 -23 -241 l0 -198 -125 0 -125 0 0 98 0 98 45 44 c25 24 45 49 45 54 0
5 -10 20 -22 33 l-22 23 -58 -57 -58 -57 0 -118 0 -118 -75 0 -75 0 0 160 0
160 -35 0 -35 0 0 -160 0 -160 -75 0 -75 0 0 116 0 115 -51 55 c-29 30 -57 54
-64 54 -6 0 -21 -10 -33 -23 l-22 -23 50 -49 50 -49 0 -98 c0 -97 0 -98 -24
-98 -44 0 -56 -10 -56 -46 l0 -34 420 0 420 0 0 -35 c0 -34 1 -35 40 -35 l40
0 0 273 c0 230 2 276 16 295 8 12 21 22 27 22 7 0 39 13 72 29 190 90 263 316
163 504 -65 121 -179 189 -318 189 -41 0 -84 -2 -94 -4 -16 -2 -21 5 -28 35
-26 121 -119 238 -236 294 -67 32 -85 36 -166 39 -50 1 -102 0 -116 -3z"/>
<path d="M1477 2465 c-21 -7 -40 -15 -41 -17 -36 -47 -36 -49 -36 -301 0 -266
4 -292 53 -319 24 -14 501 -25 561 -14 26 5 42 24 100 111 l69 105 338 0 339
0 0 -35 c0 -33 2 -35 35 -35 34 0 35 1 35 36 l0 37 83 -6 c45 -4 177 -12 294
-18 195 -11 214 -11 238 5 14 9 30 28 35 42 14 35 12 148 -2 179 -24 53 -41
56 -309 40 -134 -8 -265 -15 -291 -15 l-48 0 0 35 c0 33 -2 35 -35 35 -33 0
-35 -2 -35 -35 l0 -35 -340 0 -340 0 -64 99 c-35 55 -73 104 -85 110 -31 17
-506 14 -554 -4z m586 -162 c35 -54 70 -104 79 -110 11 -10 105 -13 364 -15
l349 -3 3 -32 3 -33 -358 -2 -358 -3 -73 -107 -73 -108 -254 0 c-241 0 -255 1
-265 19 -6 12 -10 107 -10 240 0 186 2 222 16 235 13 14 51 16 265 16 l249 0
63 -97z m1447 -159 l0 -67 -157 7 c-87 4 -184 9 -215 13 l-58 6 0 43 c0 41 2
44 28 45 15 1 79 5 142 9 63 3 148 7 188 8 l72 2 0 -66z m-510 -5 c0 -40 -5
-44 -47 -33 -18 5 -23 14 -23 40 0 28 4 33 28 36 38 5 42 2 42 -43z"/>
<path d="M1584 2316 c-3 -8 -4 -25 -2 -38 3 -23 4 -23 166 -26 l162 -2 0 40 0
40 -160 0 c-130 0 -162 -3 -166 -14z"/>
<path d="M1580 2145 l0 -35 165 0 165 0 0 35 0 35 -165 0 -165 0 0 -35z"/>
<path d="M1587 2033 c-4 -3 -7 -21 -7 -40 l0 -33 165 0 165 0 0 40 0 40 -158
0 c-87 0 -162 -3 -165 -7z"/>
<path d="M2060 1640 c-23 -23 -24 -33 -10 -61 12 -22 59 -26 78 -7 19 19 14
55 -10 72 -29 20 -34 20 -58 -4z"/>
<path d="M1210 1603 c-47 -9 -50 -17 -50 -160 0 -74 5 -143 10 -154 8 -13 21
-19 45 -19 34 0 35 1 35 39 0 44 8 71 21 71 5 0 25 -25 45 -55 32 -48 41 -55
70 -55 52 0 60 28 24 76 -29 39 -38 64 -22 64 20 0 45 67 38 102 -14 76 -100
112 -216 91z m114 -95 c15 -25 -3 -52 -38 -56 -24 -3 -26 -1 -26 38 0 39 2 41
26 38 15 -2 32 -11 38 -20z"/>
<path d="M3003 1592 c-18 -11 -105 -279 -98 -301 7 -23 49 -35 74 -21 11 5 22
23 26 40 6 28 9 30 55 30 46 0 49 -2 55 -31 8 -36 43 -53 80 -39 14 5 25 12
25 16 0 29 -85 292 -98 302 -17 13 -100 16 -119 4z m81 -149 c7 -32 6 -33 -24
-33 -29 0 -32 2 -26 25 3 13 11 37 17 52 10 26 12 26 19 8 4 -11 11 -35 14
-52z"/>
<path d="M1533 1521 c-91 -57 -81 -194 17 -243 67 -34 162 -16 168 31 5 34 -8
41 -55 28 -31 -8 -48 -8 -67 1 -41 18 -31 30 32 38 89 11 102 18 102 59 0 24
-9 44 -28 66 -24 27 -37 33 -83 36 -42 3 -61 0 -86 -16z m104 -67 c4 -11 -66
-28 -75 -19 -3 3 1 12 8 20 15 18 61 17 67 -1z"/>
<path d="M1834 1521 c-47 -29 -64 -59 -64 -116 0 -68 26 -108 84 -130 70 -27
146 -8 146 36 0 25 -18 33 -66 30 -34 -2 -45 2 -58 21 -23 32 -20 55 9 84 22
22 31 25 65 19 39 -7 40 -6 40 24 0 20 -7 34 -19 41 -32 16 -103 12 -137 -9z"/>
<path d="M2250 1533 c-47 -17 -50 -29 -50 -188 0 -167 4 -179 57 -173 26 3 28
7 31 48 l3 45 37 -3 c50 -4 103 25 124 68 38 75 11 167 -57 196 -34 14 -115
18 -145 7z m101 -73 c14 -8 19 -21 19 -53 0 -50 -13 -67 -52 -67 -27 0 -28 1
-28 58 0 74 13 87 61 62z"/>
<path d="M2563 1521 c-98 -62 -77 -215 35 -252 40 -13 115 -7 137 11 16 13 21
55 7 64 -4 2 -26 -1 -49 -7 -31 -8 -48 -8 -67 1 -42 19 -30 29 46 40 80 12
101 29 92 71 -4 14 -19 39 -34 55 -38 39 -119 47 -167 17z m104 -67 c4 -11
-66 -28 -75 -19 -3 3 1 12 8 20 15 18 61 17 67 -1z"/>
<path d="M3305 1530 c-43 -17 -46 -30 -43 -190 3 -167 8 -180 61 -166 24 6 27
11 27 49 l0 43 38 -4 c50 -4 103 25 124 68 38 75 11 167 -57 196 -37 15 -118
18 -150 4z m109 -76 c19 -18 21 -85 4 -102 -7 -7 -25 -12 -40 -12 -27 0 -28 1
-28 58 0 32 3 62 7 65 11 12 41 7 57 -9z"/>
<path d="M3614 1526 c-17 -8 -34 -21 -38 -31 -3 -9 -6 -79 -6 -156 0 -136 0
-139 25 -155 38 -25 63 -11 67 39 3 39 5 42 31 39 42 -5 93 16 122 49 20 25
25 41 25 85 0 68 -19 107 -64 128 -41 19 -119 20 -162 2z m118 -73 c39 -35 16
-113 -32 -113 -30 0 -30 0 -30 58 0 32 3 62 7 65 11 12 36 8 55 -10z"/>
<path d="M2052 1403 l3 -128 43 -3 42 -3 0 115 c0 63 -3 121 -6 130 -4 11 -19
16 -45 16 l-40 0 3 -127z"/>
</g>
</svg>
